<svg id="圖層_1" data-name="圖層 1" xmlns="http://www.w3.org/2000/svg" viewBox="0 0 1080 1080"><defs><style>.cls-1{fill:#c8a8ce;}.cls-2{fill:#8c2e35;}.cls-3{fill:#5dffed;}</style></defs><title>NTPUTOOL_logo</title><rect class="cls-1" width="1080" height="1080"/><path class="cls-2" d="M139.08,605.92H280.42c7.85,0,15.36-6.9,15-15s-6.59-15-15-15H139.08c-7.85,0-15.36,6.9-15,15s6.59,15,15,15Z"/><path class="cls-2" d="M191.13,597.66l-8,86.87L170.59,821.86l-2.91,31.77c-.86,9.4,8.89,18.41,18,18,10.49-.47,17.08-7.93,18-18l8-86.87,12.58-137.33,2.91-31.77c.86-9.4-8.89-18.41-18-18-10.49.47-17.08,7.93-18,18Z"/><path class="cls-2" d="M166.87,217.8l-9.79,106.84L141.47,495l-3.6,39.25c-.86,9.4,8.89,18.41,18,18,10.49-.47,17.08-7.93,18-18l9.79-106.84,15.61-170.39,3.6-39.25c.86-9.4-8.89-18.41-18-18-10.49.47-17.08,7.93-18,18Z"/><path class="cls-2" d="M275.45,217.8l-9.79,106.84L250.06,495l-3.6,39.25c-.86,9.4,8.89,18.41,18,18,10.49-.47,17.08-7.93,18-18l9.79-106.84,15.61-170.39,3.6-39.25c.86-9.4-8.89-18.41-18-18-10.49.47-17.08,7.93-18,18Z"/><path class="cls-2" d="M167.5,223.42l26.95,106.85,42.89,170.08,9.77,38.73c2.3,9.13,13,15.52,22.14,12.57,9.45-3.06,15-12.36,12.57-22.14L254.87,422.65,212,252.57l-9.77-38.73c-2.3-9.13-13-15.52-22.14-12.57-9.45,3.06-15,12.36-12.57,22.14Z"/><path class="cls-2" d="M435.82,217.8,426,324.64,410.42,495l-3.6,39.25c-.86,9.4,8.89,18.41,18,18,10.49-.47,17.08-7.93,18-18l9.79-106.84,15.61-170.39,3.6-39.25c.86-9.4-8.89-18.41-18-18-10.49.47-17.08,7.93-18,18Z"/><path class="cls-2" d="M379.19,236.89l130.88-1.09,18.29-.15c9.41-.08,18.44-8.22,18-18s-7.91-18.08-18-18l-130.88,1.09-18.29.15c-9.41.08-18.44,8.22-18,18s7.91,18.08,18,18Z"/><path class="cls-2" d="M612.7,236.22l87.26-.72,12.34-.1c9.41-.08,18.44-8.22,18-18s-7.91-18.08-18-18l-87.26.72-12.34.1c-9.41.08-18.44,8.22-18,18s7.91,18.08,18,18Z"/><path class="cls-2" d="M595.44,218.22,582.72,352.76l-1.8,19c-.89,9.4,8.91,18.41,18,18,10.51-.47,17-7.93,18-18l12.72-134.55,1.8-19c.89-9.4-8.91-18.41-18-18-10.51.47-17,7.93-18,18Z"/><path class="cls-2" d="M580.79,371.76,567.44,515.47l-1.86,20.06c-.87,9.4,8.9,18.41,18,18,10.5-.47,17.06-7.93,18-18l13.35-143.71,1.86-20.06c.87-9.4-8.9-18.41-18-18-10.5.47-17.06,7.93-18,18Z"/><path class="cls-2" d="M598.92,392.76l87.26-.72,12.34-.1c9.41-.08,18.44-8.22,18-18s-7.91-18.08-18-18l-87.26.72-12.34.1c-9.41.08-18.44,8.22-18,18s7.91,18.08,18,18Z"/><path class="cls-2" d="M785.63,220.66,775.85,327.5,760.24,497.89l-3.6,39.25c-.86,9.4,8.89,18.41,18,18,10.49-.47,17.08-7.93,18-18l9.79-106.84L818,259.91l3.6-39.25c.86-9.4-8.89-18.41-18-18-10.49.47-17.08,7.93-18,18Z"/><path class="cls-2" d="M889,220.66,879.21,327.5,863.6,497.89,860,537.14c-.86,9.4,8.89,18.41,18,18,10.49-.47,17.08-7.93,18-18l9.79-106.84,15.61-170.39,3.6-39.25c.86-9.4-8.89-18.41-18-18-10.49.47-17.08,7.93-18,18Z"/><path class="cls-2" d="M777.64,556.41l87.26-.72,12.34-.1c9.41-.08,18.44-8.22,18-18s-7.91-18.08-18-18l-87.26.72-12.34.1c-9.41.08-18.44,8.22-18,18s7.91,18.08,18,18Z"/><line class="cls-3" x1="330.38" y1="590.92" x2="306.35" y2="853.31"/><path class="cls-2" d="M312.38,590.92,304.22,680l-12.9,140.83-3,32.43c-.86,9.4,8.89,18.41,18,18,10.49-.47,17.08-7.93,18-18l8.17-89.13,12.9-140.83,3-32.43c.86-9.4-8.89-18.41-18-18-10.49.47-17.08,7.93-18,18Z"/><line class="cls-3" x1="457.05" y1="590.92" x2="433.01" y2="853.31"/><path class="cls-2" d="M439,590.92,430.88,680,418,820.88l-3,32.43c-.86,9.4,8.89,18.41,18,18,10.49-.47,17.08-7.93,18-18l8.17-89.13,12.9-140.83,3-32.43c.86-9.4-8.89-18.41-18-18-10.49.47-17.08,7.93-18,18Z"/><line class="cls-3" x1="330.38" y1="590.92" x2="457.05" y2="590.92"/><path class="cls-2" d="M330.38,608.92H457c9.42,0,18.44-8.28,18-18s-7.91-18-18-18H330.38c-9.42,0-18.44,8.28-18,18s7.91,18,18,18Z"/><line class="cls-3" x1="306.35" y1="853.31" x2="433.01" y2="853.31"/><path class="cls-2" d="M306.35,871.31H433c9.42,0,18.44-8.28,18-18s-7.91-18-18-18H306.35c-9.42,0-18.44,8.28-18,18s7.91,18,18,18Z"/><line class="cls-3" x1="561.3" y1="590.92" x2="537.26" y2="853.31"/><path class="cls-2" d="M543.3,590.92,535.14,680l-12.9,140.83-3,32.43c-.86,9.4,8.89,18.41,18,18,10.49-.47,17.08-7.93,18-18l8.17-89.13,12.9-140.83,3-32.43c.86-9.4-8.89-18.41-18-18-10.49.47-17.08,7.93-18,18Z"/><line class="cls-3" x1="687.96" y1="590.92" x2="663.92" y2="853.31"/><path class="cls-2" d="M670,590.92,661.8,680l-12.9,140.83-3,32.43c-.86,9.4,8.89,18.41,18,18,10.49-.47,17.08-7.93,18-18l8.17-89.13L703,623.35l3-32.43c.86-9.4-8.89-18.41-18-18-10.49.47-17.08,7.93-18,18Z"/><line class="cls-3" x1="561.3" y1="590.92" x2="687.96" y2="590.92"/><path class="cls-2" d="M561.3,608.92H688c9.42,0,18.44-8.28,18-18s-7.91-18-18-18H561.3c-9.42,0-18.44,8.28-18,18s7.91,18,18,18Z"/><line class="cls-3" x1="537.26" y1="853.31" x2="663.92" y2="853.31"/><path class="cls-2" d="M537.26,871.31H663.92c9.42,0,18.44-8.28,18-18s-7.91-18-18-18H537.26c-9.42,0-18.44,8.28-18,18s7.91,18,18,18Z"/><line class="cls-3" x1="795.77" y1="586.45" x2="774.79" y2="815.39"/><path class="cls-2" d="M783.77,586.45l-7.12,77.73L765.4,787l-2.61,28.43c-.59,6.46,5.94,12,12,12,7,0,11.41-5.52,12-12l7.12-77.73,11.25-122.77,2.61-28.43c.59-6.46-5.94-12-12-12-7,0-11.41,5.52-12,12Z"/><line class="cls-3" x1="850.17" y1="586.45" x2="829.19" y2="815.39"/><path class="cls-2" d="M838.17,586.45,831,664.18,819.8,787l-2.61,28.43c-.59,6.46,5.94,12,12,12,7,0,11.41-5.52,12-12l7.12-77.73,11.25-122.77,2.61-28.43c.59-6.46-5.94-12-12-12-7,0-11.41,5.52-12,12Z"/><line class="cls-3" x1="850.17" y1="586.45" x2="795.77" y2="586.45"/><path class="cls-2" d="M850.17,574.45h-54.4c-15.44,0-15.47,24,0,24h54.4c15.44,0,15.47-24,0-24Z"/><line class="cls-3" x1="846.69" y1="629.99" x2="792.29" y2="629.99"/><path class="cls-2" d="M846.69,618h-54.4c-15.44,0-15.47,24,0,24h54.4c15.44,0,15.47-24,0-24Z"/><line class="cls-3" x1="829.43" y1="815.82" x2="775.04" y2="815.82"/><path class="cls-2" d="M829.43,803.82H775c-15.44,0-15.47,24,0,24h54.4c15.44,0,15.47-24,0-24Z"/><line class="cls-3" x1="828.63" y1="815.82" x2="794.15" y2="862.61"/><path class="cls-2" d="M818.27,809.76l-34.47,46.79c-3.85,5.22-.87,13.39,4.31,16.42,6.1,3.57,12.56.93,16.42-4.31L839,821.88c3.85-5.22.87-13.39-4.31-16.42-6.1-3.57-12.56-.93-16.42,4.31Z"/><line class="cls-3" x1="775.04" y1="815.82" x2="794.96" y2="862.61"/><path class="cls-2" d="M764.67,821.88l19.92,46.79c2.54,6,11.33,7.28,16.42,4.31,6.17-3.61,6.85-10.43,4.31-16.42L785.4,809.76c-2.54-6-11.33-7.28-16.42-4.31-6.17,3.61-6.85,10.43-4.31,16.42Z"/><path class="cls-2" d="M694.2,219.72,681.47,354.27l-1.8,19c-.89,9.4,8.91,18.41,18,18,10.51-.47,17-7.93,18-18L728.4,238.72l1.8-19c.89-9.4-8.91-18.41-18-18-10.51.47-17,7.93-18,18Z"/></svg>